<svg width="26" height="26" viewBox="0 0 32 32" fill="none" xmlns="http://www.w3.org/2000/svg">
                    <path d="M7.5625 12.5986C8.59153 14.7236 10.3098 16.4375 12.4375 17.4611C12.5944 17.5354 12.768 17.5676 12.9412 17.5544C13.1143 17.5413 13.2811 17.4832 13.425 17.3861L16.55 15.2986C16.6881 15.2049 16.8476 15.1478 17.0137 15.1325C17.1799 15.1172 17.3472 15.1442 17.5 15.2111L23.35 17.7236C23.5499 17.8068 23.717 17.9534 23.8254 18.1409C23.9338 18.3284 23.9776 18.5463 23.95 18.7611C23.7646 20.2083 23.0582 21.5383 21.9631 22.5023C20.8679 23.4663 19.459 23.9982 18 23.9986C13.4913 23.9986 9.1673 22.2075 5.97919 19.0194C2.79107 15.8313 1 11.5073 1 6.99858C1.00033 5.53957 1.53227 4.13068 2.49628 3.03552C3.4603 1.94036 4.79033 1.23399 6.2375 1.04858C6.4523 1.02098 6.67021 1.06477 6.85768 1.17319C7.04515 1.2816 7.19178 1.44864 7.275 1.64858L9.7875 7.51108C9.85284 7.66151 9.88017 7.82571 9.86709 7.98919C9.85401 8.15268 9.80092 8.31044 9.7125 8.44858L7.625 11.6236C7.53206 11.7672 7.47752 11.9322 7.46657 12.1029C7.45563 12.2736 7.48866 12.4443 7.5625 12.5986V12.5986Z" stroke="#ffffff" stroke-width="1.2" stroke-linecap="round" stroke-linejoin="round"></path>
                  </svg>